<svg xmlns="http://www.w3.org/2000/svg" width="1920" height="4032" viewBox="0 0 1920 4032" fill="none"><g opacity="0.3"><ellipse cx="1855" cy="1563.5" rx="924" ry="924.5" fill="url(#paint0_radial_113_498)" fill-opacity="0.7"></ellipse><path d="M1588.77 1507.27L1588.27 1507.56L1588.27 1508.13L1586.53 1868.32L1586.52 1870.06L1588.03 1869.19L1934.68 1669.06L1935.17 1668.77L1935.18 1668.19L1936.92 1308L1936.92 1306.26L1935.42 1307.13L1588.77 1507.27Z" fill="url(#paint1_linear_113_498)" fill-opacity="0.4" stroke="url(#paint2_linear_113_498)" stroke-width="2"></path><path d="M1647.44 1536.55L1646.94 1536.83L1646.94 1537.41L1645.2 1897.6L1645.19 1899.34L1646.7 1898.47L1993.34 1698.33L1993.84 1698.04L1993.84 1697.47L1995.58 1337.28L1995.59 1335.54L1994.08 1336.41L1647.44 1536.55Z" fill="url(#paint3_linear_113_498)" fill-opacity="0.4" stroke="url(#paint4_linear_113_498)" stroke-width="2"></path><path d="M1706.17 1558.28L1705.68 1558.57L1705.67 1559.14L1703.93 1919.33L1703.93 1921.07L1705.43 1920.2L2052.08 1720.06L2052.58 1719.78L2052.58 1719.2L2054.32 1359.01L2054.33 1357.27L2052.82 1358.14L1706.17 1558.28Z" fill="url(#paint5_linear_113_498)" fill-opacity="0.4" stroke="url(#paint6_linear_113_498)" stroke-width="2"></path></g><g opacity="0.3"><ellipse cx="1857" cy="3107.5" rx="924" ry="924.5" fill="url(#paint7_radial_113_498)" fill-opacity="0.7"></ellipse><path d="M1590.77 3051.27L1590.27 3051.56L1590.27 3052.13L1588.53 3412.32L1588.52 3414.06L1590.03 3413.19L1936.68 3213.06L1937.17 3212.77L1937.18 3212.19L1938.92 2852L1938.92 2850.26L1937.42 2851.13L1590.77 3051.27Z" fill="url(#paint8_linear_113_498)" fill-opacity="0.4" stroke="url(#paint9_linear_113_498)" stroke-width="2"></path><path d="M1649.44 3080.55L1648.94 3080.83L1648.94 3081.41L1647.2 3441.6L1647.19 3443.34L1648.7 3442.47L1995.34 3242.33L1995.84 3242.04L1995.84 3241.47L1997.58 2881.28L1997.59 2879.54L1996.08 2880.41L1649.44 3080.55Z" fill="url(#paint10_linear_113_498)" fill-opacity="0.4" stroke="url(#paint11_linear_113_498)" stroke-width="2"></path><path d="M1708.17 3102.28L1707.68 3102.57L1707.67 3103.14L1705.93 3463.33L1705.93 3465.07L1707.43 3464.2L2054.08 3264.06L2054.58 3263.78L2054.58 3263.2L2056.32 2903.01L2056.33 2901.27L2054.82 2902.14L1708.17 3102.28Z" fill="url(#paint12_linear_113_498)" fill-opacity="0.4" stroke="url(#paint13_linear_113_498)" stroke-width="2"></path></g><g opacity="0.3"><ellipse cx="1565" cy="1565.5" rx="1565" ry="1565.5" transform="matrix(1 0 0 -1 247 1565)" fill="url(#paint14_radial_113_498)" fill-opacity="0.7"></ellipse><path d="M1527.43 204.331L1526.93 204.044L1526.93 203.47L1524.87 -222.739L1524.86 -224.481L1526.37 -223.61L1936.55 13.2089L1937.05 13.496L1937.05 14.0701L1939.11 440.279L1939.12 442.021L1937.61 441.15L1527.43 204.331Z" fill="url(#paint15_linear_113_498)" fill-opacity="0.4" stroke="url(#paint16_linear_113_498)" stroke-width="2"></path><path d="M1596.85 169.689L1596.35 169.402L1596.35 168.828L1594.29 -257.382L1594.28 -259.123L1595.79 -258.252L2005.97 -21.4336L2006.47 -21.1466L2006.47 -20.5724L2008.53 405.637L2008.54 407.378L2007.03 406.508L1596.85 169.689Z" fill="url(#paint17_linear_113_498)" fill-opacity="0.4" stroke="url(#paint18_linear_113_498)" stroke-width="2"></path><path d="M1666.35 143.973L1665.85 143.686L1665.85 143.112L1663.79 -283.097L1663.78 -284.839L1665.29 -283.968L2075.47 -47.1495L2075.97 -46.8624L2075.97 -46.2883L2078.03 379.921L2078.04 381.663L2076.53 380.792L1666.35 143.973Z" fill="url(#paint19_linear_113_498)" fill-opacity="0.4" stroke="url(#paint20_linear_113_498)" stroke-width="2"></path></g><g opacity="0.3"><ellipse cx="924" cy="924.5" rx="924" ry="924.5" transform="matrix(-1 0 0 1 980 212)" fill="url(#paint21_radial_113_498)" fill-opacity="0.7"></ellipse><path d="M322.23 1080.27L322.727 1080.56L322.73 1081.13L324.468 1441.32L324.476 1443.06L322.968 1442.19L-23.6771 1242.06L-24.1743 1241.77L-24.177 1241.19L-25.9152 881.005L-25.9237 879.263L-24.4152 880.134L322.23 1080.27Z" fill="url(#paint22_linear_113_498)" fill-opacity="0.4" stroke="url(#paint23_linear_113_498)" stroke-width="2"></path><path d="M263.563 1109.55L264.06 1109.83L264.063 1110.41L265.801 1470.6L265.809 1472.34L264.301 1471.47L-82.3441 1271.33L-82.8413 1271.04L-82.844 1270.47L-84.5822 910.281L-84.5906 908.539L-83.0822 909.41L263.563 1109.55Z" fill="url(#paint24_linear_113_498)" fill-opacity="0.4" stroke="url(#paint25_linear_113_498)" stroke-width="2"></path><path d="M204.827 1131.28L205.325 1131.57L205.327 1132.14L207.066 1492.33L207.074 1494.07L205.566 1493.2L-141.079 1293.06L-141.577 1292.78L-141.579 1292.2L-143.318 932.014L-143.326 930.272L-141.818 931.143L204.827 1131.28Z" fill="url(#paint26_linear_113_498)" fill-opacity="0.4" stroke="url(#paint27_linear_113_498)" stroke-width="2"></path></g><g opacity="0.3"><ellipse cx="924" cy="924.5" rx="924" ry="924.5" transform="matrix(-1 0 0 1 980 1756)" fill="url(#paint28_radial_113_498)" fill-opacity="0.7"></ellipse><path d="M322.23 2624.27L322.727 2624.56L322.73 2625.13L324.468 2985.32L324.476 2987.06L322.968 2986.19L-23.6771 2786.06L-24.1743 2785.77L-24.177 2785.19L-25.9152 2425L-25.9237 2423.26L-24.4152 2424.13L322.23 2624.27Z" fill="url(#paint29_linear_113_498)" fill-opacity="0.4" stroke="url(#paint30_linear_113_498)" stroke-width="2"></path><path d="M263.563 2653.55L264.06 2653.83L264.063 2654.41L265.801 3014.6L265.809 3016.34L264.301 3015.47L-82.3441 2815.33L-82.8413 2815.04L-82.844 2814.47L-84.5822 2454.28L-84.5906 2452.54L-83.0822 2453.41L263.563 2653.55Z" fill="url(#paint31_linear_113_498)" fill-opacity="0.4" stroke="url(#paint32_linear_113_498)" stroke-width="2"></path><path d="M204.827 2675.28L205.325 2675.57L205.327 2676.14L207.066 3036.33L207.074 3038.07L205.566 3037.2L-141.079 2837.06L-141.577 2836.78L-141.579 2836.2L-143.318 2476.01L-143.326 2474.27L-141.818 2475.14L204.827 2675.28Z" fill="url(#paint33_linear_113_498)" fill-opacity="0.4" stroke="url(#paint34_linear_113_498)" stroke-width="2"></path></g><defs><radialGradient id="paint0_radial_113_498" cx="0" cy="0" r="1" gradientUnits="userSpaceOnUse" gradientTransform="translate(1855 1563.5) rotate(90) scale(851.5 699.782)"><stop stop-color="#EE2F3F"></stop><stop offset="1" stop-color="#131315" stop-opacity="0"></stop></radialGradient><linearGradient id="paint1_linear_113_498" x1="1683.96" y1="1453.47" x2="1839.49" y2="1722.86" gradientUnits="userSpaceOnUse"><stop stop-color="#EE2F3F"></stop><stop offset="1" stop-color="#131315" stop-opacity="0"></stop></linearGradient><linearGradient id="paint2_linear_113_498" x1="1683.96" y1="1453.47" x2="1839.49" y2="1722.86" gradientUnits="userSpaceOnUse"><stop stop-color="#EE2F3F"></stop><stop offset="1" stop-color="#131315" stop-opacity="0"></stop></linearGradient><linearGradient id="paint3_linear_113_498" x1="1742.62" y1="1482.74" x2="1898.16" y2="1752.13" gradientUnits="userSpaceOnUse"><stop stop-color="#EE2F3F"></stop><stop offset="1" stop-color="#131315" stop-opacity="0"></stop></linearGradient><linearGradient id="paint4_linear_113_498" x1="1742.62" y1="1482.74" x2="1898.16" y2="1752.13" gradientUnits="userSpaceOnUse"><stop stop-color="#EE2F3F"></stop><stop offset="1" stop-color="#131315" stop-opacity="0"></stop></linearGradient><linearGradient id="paint5_linear_113_498" x1="1801.36" y1="1504.48" x2="1956.89" y2="1773.87" gradientUnits="userSpaceOnUse"><stop stop-color="#EE2F3F"></stop><stop offset="1" stop-color="#131315" stop-opacity="0"></stop></linearGradient><linearGradient id="paint6_linear_113_498" x1="1801.36" y1="1504.48" x2="1956.89" y2="1773.87" gradientUnits="userSpaceOnUse"><stop stop-color="#EE2F3F"></stop><stop offset="1" stop-color="#131315" stop-opacity="0"></stop></linearGradient><radialGradient id="paint7_radial_113_498" cx="0" cy="0" r="1" gradientUnits="userSpaceOnUse" gradientTransform="translate(1857 3107.5) rotate(90) scale(851.5 699.782)"><stop stop-color="#EE2F3F"></stop><stop offset="1" stop-color="#131315" stop-opacity="0"></stop></radialGradient><linearGradient id="paint8_linear_113_498" x1="1685.96" y1="2997.47" x2="1841.49" y2="3266.86" gradientUnits="userSpaceOnUse"><stop stop-color="#EE2F3F"></stop><stop offset="1" stop-color="#131315" stop-opacity="0"></stop></linearGradient><linearGradient id="paint9_linear_113_498" x1="1685.96" y1="2997.47" x2="1841.49" y2="3266.86" gradientUnits="userSpaceOnUse"><stop stop-color="#EE2F3F"></stop><stop offset="1" stop-color="#131315" stop-opacity="0"></stop></linearGradient><linearGradient id="paint10_linear_113_498" x1="1744.62" y1="3026.74" x2="1900.16" y2="3296.13" gradientUnits="userSpaceOnUse"><stop stop-color="#EE2F3F"></stop><stop offset="1" stop-color="#131315" stop-opacity="0"></stop></linearGradient><linearGradient id="paint11_linear_113_498" x1="1744.62" y1="3026.74" x2="1900.16" y2="3296.13" gradientUnits="userSpaceOnUse"><stop stop-color="#EE2F3F"></stop><stop offset="1" stop-color="#131315" stop-opacity="0"></stop></linearGradient><linearGradient id="paint12_linear_113_498" x1="1803.36" y1="3048.48" x2="1958.89" y2="3317.87" gradientUnits="userSpaceOnUse"><stop stop-color="#EE2F3F"></stop><stop offset="1" stop-color="#131315" stop-opacity="0"></stop></linearGradient><linearGradient id="paint13_linear_113_498" x1="1803.36" y1="3048.48" x2="1958.89" y2="3317.87" gradientUnits="userSpaceOnUse"><stop stop-color="#EE2F3F"></stop><stop offset="1" stop-color="#131315" stop-opacity="0"></stop></linearGradient><radialGradient id="paint14_radial_113_498" cx="0" cy="0" r="1" gradientUnits="userSpaceOnUse" gradientTransform="translate(1565 1565.5) rotate(90) scale(1441.89 1185.24)"><stop stop-color="#EE2F3F"></stop><stop offset="1" stop-color="#131315" stop-opacity="0"></stop></radialGradient><linearGradient id="paint15_linear_113_498" x1="1639.97" y1="268.153" x2="1824.01" y2="-50.6129" gradientUnits="userSpaceOnUse"><stop stop-color="#EE2F3F"></stop><stop offset="1" stop-color="#131315" stop-opacity="0"></stop></linearGradient><linearGradient id="paint16_linear_113_498" x1="1639.97" y1="268.153" x2="1824.01" y2="-50.6129" gradientUnits="userSpaceOnUse"><stop stop-color="#EE2F3F"></stop><stop offset="1" stop-color="#131315" stop-opacity="0"></stop></linearGradient><linearGradient id="paint17_linear_113_498" x1="1709.39" y1="233.511" x2="1893.43" y2="-85.2555" gradientUnits="userSpaceOnUse"><stop stop-color="#EE2F3F"></stop><stop offset="1" stop-color="#131315" stop-opacity="0"></stop></linearGradient><linearGradient id="paint18_linear_113_498" x1="1709.39" y1="233.511" x2="1893.43" y2="-85.2555" gradientUnits="userSpaceOnUse"><stop stop-color="#EE2F3F"></stop><stop offset="1" stop-color="#131315" stop-opacity="0"></stop></linearGradient><linearGradient id="paint19_linear_113_498" x1="1778.89" y1="207.795" x2="1962.93" y2="-110.971" gradientUnits="userSpaceOnUse"><stop stop-color="#EE2F3F"></stop><stop offset="1" stop-color="#131315" stop-opacity="0"></stop></linearGradient><linearGradient id="paint20_linear_113_498" x1="1778.89" y1="207.795" x2="1962.93" y2="-110.971" gradientUnits="userSpaceOnUse"><stop stop-color="#EE2F3F"></stop><stop offset="1" stop-color="#131315" stop-opacity="0"></stop></linearGradient><radialGradient id="paint21_radial_113_498" cx="0" cy="0" r="1" gradientUnits="userSpaceOnUse" gradientTransform="translate(924 924.5) rotate(90) scale(851.5 699.782)"><stop stop-color="#EE2F3F"></stop><stop offset="1" stop-color="#131315" stop-opacity="0"></stop></radialGradient><linearGradient id="paint22_linear_113_498" x1="227.042" y1="1026.47" x2="71.5103" y2="1295.86" gradientUnits="userSpaceOnUse"><stop stop-color="#EE2F3F"></stop><stop offset="1" stop-color="#131315" stop-opacity="0"></stop></linearGradient><linearGradient id="paint23_linear_113_498" x1="227.042" y1="1026.47" x2="71.5103" y2="1295.86" gradientUnits="userSpaceOnUse"><stop stop-color="#EE2F3F"></stop><stop offset="1" stop-color="#131315" stop-opacity="0"></stop></linearGradient><linearGradient id="paint24_linear_113_498" x1="168.375" y1="1055.74" x2="12.8433" y2="1325.13" gradientUnits="userSpaceOnUse"><stop stop-color="#EE2F3F"></stop><stop offset="1" stop-color="#131315" stop-opacity="0"></stop></linearGradient><linearGradient id="paint25_linear_113_498" x1="168.375" y1="1055.74" x2="12.8433" y2="1325.13" gradientUnits="userSpaceOnUse"><stop stop-color="#EE2F3F"></stop><stop offset="1" stop-color="#131315" stop-opacity="0"></stop></linearGradient><linearGradient id="paint26_linear_113_498" x1="109.64" y1="1077.48" x2="-45.892" y2="1346.87" gradientUnits="userSpaceOnUse"><stop stop-color="#EE2F3F"></stop><stop offset="1" stop-color="#131315" stop-opacity="0"></stop></linearGradient><linearGradient id="paint27_linear_113_498" x1="109.64" y1="1077.48" x2="-45.892" y2="1346.87" gradientUnits="userSpaceOnUse"><stop stop-color="#EE2F3F"></stop><stop offset="1" stop-color="#131315" stop-opacity="0"></stop></linearGradient><radialGradient id="paint28_radial_113_498" cx="0" cy="0" r="1" gradientUnits="userSpaceOnUse" gradientTransform="translate(924 924.5) rotate(90) scale(851.5 699.782)"><stop stop-color="#EE2F3F"></stop><stop offset="1" stop-color="#131315" stop-opacity="0"></stop></radialGradient><linearGradient id="paint29_linear_113_498" x1="227.042" y1="2570.47" x2="71.5103" y2="2839.86" gradientUnits="userSpaceOnUse"><stop stop-color="#EE2F3F"></stop><stop offset="1" stop-color="#131315" stop-opacity="0"></stop></linearGradient><linearGradient id="paint30_linear_113_498" x1="227.042" y1="2570.47" x2="71.5103" y2="2839.86" gradientUnits="userSpaceOnUse"><stop stop-color="#EE2F3F"></stop><stop offset="1" stop-color="#131315" stop-opacity="0"></stop></linearGradient><linearGradient id="paint31_linear_113_498" x1="168.375" y1="2599.74" x2="12.8433" y2="2869.13" gradientUnits="userSpaceOnUse"><stop stop-color="#EE2F3F"></stop><stop offset="1" stop-color="#131315" stop-opacity="0"></stop></linearGradient><linearGradient id="paint32_linear_113_498" x1="168.375" y1="2599.74" x2="12.8433" y2="2869.13" gradientUnits="userSpaceOnUse"><stop stop-color="#EE2F3F"></stop><stop offset="1" stop-color="#131315" stop-opacity="0"></stop></linearGradient><linearGradient id="paint33_linear_113_498" x1="109.64" y1="2621.48" x2="-45.892" y2="2890.87" gradientUnits="userSpaceOnUse"><stop stop-color="#EE2F3F"></stop><stop offset="1" stop-color="#131315" stop-opacity="0"></stop></linearGradient><linearGradient id="paint34_linear_113_498" x1="109.64" y1="2621.48" x2="-45.892" y2="2890.87" gradientUnits="userSpaceOnUse"><stop stop-color="#EE2F3F"></stop><stop offset="1" stop-color="#131315" stop-opacity="0"></stop></linearGradient></defs></svg>